<svg width="24" height="24" viewBox="0 0 24 24" fill="none" xmlns="http://www.w3.org/2000/svg">
<path d="M14.874 3.06367C14.7979 2.91132 14.6903 2.77689 14.5583 2.66933C14.4263 2.56177 14.2729 2.48355 14.1083 2.43985C13.9437 2.39614 13.7717 2.38797 13.6037 2.41588C13.4357 2.44378 13.2756 2.50711 13.134 2.60167C12.72 2.87767 12.3972 3.27127 12.1476 3.65767C11.8908 4.05367 11.664 4.51327 11.4636 4.99687C11.0628 5.96167 10.7268 7.11847 10.4556 8.27767C10.1276 9.69426 9.88199 11.1287 9.71998 12.5737C9.23174 12.2589 8.83944 11.816 8.58598 11.2933C8.19238 10.4773 8.10838 9.45247 8.10838 8.10847C8.10833 7.87117 8.03792 7.63921 7.90606 7.44192C7.7742 7.24463 7.58681 7.09086 7.36757 7.00006C7.14833 6.90926 6.90709 6.88549 6.67434 6.93177C6.4416 6.97805 6.2278 7.0923 6.05998 7.26007C5.27898 8.0394 4.65961 8.96532 4.23745 9.98468C3.8153 11.004 3.59866 12.0968 3.59998 13.2001C3.60008 14.5814 3.94084 15.9414 4.59207 17.1596C5.2433 18.3778 6.1849 19.4166 7.33348 20.184C8.48206 20.9514 9.80216 21.4237 11.1769 21.559C12.5516 21.6944 13.9384 21.4887 15.2146 20.96C16.4908 20.4314 17.6169 19.5962 18.4932 18.5284C19.3696 17.4606 19.969 16.1932 20.2385 14.8384C20.5081 13.4836 20.4393 12.0832 20.0384 10.7614C19.6374 9.43948 18.9167 8.23688 17.94 7.26007C17.2296 6.55087 16.764 6.07807 16.3224 5.49967C15.8868 4.92847 15.4536 4.22407 14.874 3.06367ZM14.544 18.1441C14.0405 18.6469 13.3994 18.9893 12.7014 19.1279C12.0035 19.2666 11.2802 19.1953 10.6227 18.923C9.96533 18.6508 9.40331 18.1899 9.0077 17.5985C8.61208 17.007 8.40061 16.3116 8.39998 15.6001C8.39998 15.6001 9.45478 16.2001 11.4 16.2001C11.4 15.0001 12 11.4001 12.9 10.8001C13.5 12.0001 13.8432 12.3517 14.5452 13.0549C14.88 13.3887 15.1456 13.7854 15.3266 14.2222C15.5076 14.659 15.6005 15.1273 15.6 15.6001C15.6005 16.0729 15.5076 16.5412 15.3266 16.978C15.1456 17.4147 14.88 17.8115 14.5452 18.1453L14.544 18.1441Z" fill="black"/>
</svg>
